<svg id="Layer_1" data-name="Layer 1" xmlns="http://www.w3.org/2000/svg" viewBox="0 0 412.5 412.5"><defs><style>.cls-1{fill:#ffea00;}.cls-2,.cls-3,.cls-4{fill:none;}.cls-3,.cls-4{stroke:#fff;stroke-miterlimit:10;}.cls-3{stroke-width:5px;}.cls-4{stroke-linecap:round;stroke-width:6px;}.cls-5{fill:#fff;}</style></defs><title>dummi</title><circle class="cls-1" cx="205.94" cy="206.07" r="206.25"/><rect class="cls-2" x="-334.06" y="-755.96" width="1080" height="1920"/><path class="cls-3" d="M391.45,206.1c3.15,16.83-84.24,64-185.5,64-103,0-188.71-49-185.5-64,2.47-11.57,56.07,4.94,126-28,28.79-13.56,35.2-34.75,59.5-36,25.15-1.29,36.28,16.61,67.5,34C336.2,211.07,389,193.25,391.45,206.1Z"/><circle class="cls-3" cx="257.94" cy="202.34" r="13.5"/><circle class="cls-3" cx="163.44" cy="202.34" r="13.5"/><path class="cls-4" d="M76.14,214.69a239.87,239.87,0,0,0,261.6,0"/><circle class="cls-5" cx="257.94" cy="202.34" r="4.32"/><circle class="cls-5" cx="163.44" cy="202.34" r="4.32"/></svg>