<svg id="Layer_1" data-name="Layer 1" xmlns="http://www.w3.org/2000/svg" viewBox="0 0 800 800"><defs><style>.cls-1{fill:#008577;}.cls-2{fill:#00685b;}.cls-3{fill:#fff;}.cls-4{fill:#f26161;}</style></defs><title>Untitled-1</title><path class="cls-1" d="M564,0H236C105.66,0,0,105.66,0,236V542L284,258,252,490,95,602l199-48,139,57L244,800H564c130.34,0,236-105.66,236-236V236C800,105.66,694.34,0,564,0Z"/><path class="cls-2" d="M294,554,95,602,252,490l32-232L0,542v22C0,694.34,105.66,800,236,800h8L433,611Z"/><ellipse class="cls-3" cx="439.38" cy="400.5" rx="206.63" ry="210.5"/><polygon class="cls-3" points="268.88 477.57 95 601.8 347.92 539.68 268.88 477.57"/><circle class="cls-4" cx="547.25" cy="392.75" r="56"/><path class="cls-4" d="M552.43,502.25l40.74-76.63A5.87,5.87,0,0,0,588,417H506.5a5.88,5.88,0,0,0-5.18,8.62l40.74,76.63a5.86,5.86,0,0,0,10.37,0Z"/><circle class="cls-3" cx="547.25" cy="392.75" r="17"/><circle class="cls-1" cx="433.25" cy="392.75" r="17"/><circle class="cls-1" cx="331.25" cy="392.75" r="17"/></svg>